<?xml version="1.0" encoding="UTF-8"?>
<svg xmlns="http://www.w3.org/2000/svg" xmlns:xlink="http://www.w3.org/1999/xlink" xmlns:svgjs="http://svgjs.com/svgjs" version="1.1" width="512" height="512" x="0" y="0" viewBox="0 0 512.01 512.01" style="enable-background:new 0 0 512 512" xml:space="preserve" class="">
  <g>
    <linearGradient xmlns="http://www.w3.org/2000/svg" id="SVGID_1_" gradientUnits="userSpaceOnUse" x1="256.005" x2="256.005" y1="512.01" y2="0">
      <stop stop-opacity="1" stop-color="#a6a7d2" offset="0"/>
      <stop stop-opacity="1" stop-color="#bee6f3" offset="1"/>
    </linearGradient>
    <g xmlns="http://www.w3.org/2000/svg">
      <g>
        <path d="m302.01 180c8.284 0 15-6.716 15-15v-15c0-8.284-6.716-15-15-15s-15 6.716-15 15v15c0 8.284 6.716 15 15 15zm60 0c8.284 0 15-6.716 15-15v-15c0-8.284-6.716-15-15-15s-15 6.716-15 15v15c0 8.284 6.716 15 15 15zm-30-180c-99.252 0-180 80.748-180 180 0 44.238 16.051 84.791 42.622 116.165l-48.622 48.622-10.604-10.604c-5.854-5.855-15.357-5.857-21.213 0l-101.003 101.003c-17.585 17.585-17.588 46.048 0 63.635 17.582 17.584 46.047 17.587 63.635 0l101.003-101.003c5.858-5.858 5.858-15.355 0-21.213l-10.605-10.605 48.622-48.622c31.374 26.571 71.928 42.622 116.165 42.622 99.252 0 180-80.748 180-180s-80.748-180-180-180zm-276.398 477.607c-5.862 5.861-15.346 5.862-21.209 0-5.86-5.86-5.863-15.346 0-21.209l90.396-90.396 21.209 21.208zm276.398-147.607c-41.317 0-78.786-16.793-105.941-43.911-.025-.025-.045-.053-.07-.078s-.052-.045-.078-.07c-27.118-27.155-43.911-64.623-43.911-105.941 0-82.71 67.29-150 150-150s150 67.29 150 150-67.29 150-150 150zm.001-133.194h-.003c-16.007 0-31.068 6.246-42.41 17.588-5.858 5.858-5.858 15.355 0 21.213 5.857 5.858 15.355 5.858 21.213 0 5.676-5.675 13.204-8.801 21.199-8.801s15.523 3.125 21.199 8.801c5.858 5.858 15.355 5.857 21.213 0 5.858-5.858 5.857-15.355 0-21.213-11.342-11.342-26.404-17.588-42.411-17.588zm-.001-136.806c-66.168 0-120 53.832-120 120s53.832 120 120 120 120-53.832 120-120-53.832-120-120-120zm0 210c-49.626 0-90-40.374-90-90s40.374-90 90-90 90 40.374 90 90-40.374 90-90 90z" fill="url(#SVGID_1_)" data-original="url(#SVGID_1_)" style=""/>
      </g>
    </g>
  </g>
</svg>
